<svg xmlns="http://www.w3.org/2000/svg" viewBox="0 0 100 100">
  <circle cx="50" cy="50" r="48" fill="#003366" stroke="#FFD700" stroke-width="2"/>
  <circle cx="50" cy="50" r="40" fill="#003366" stroke="#FFD700" stroke-width="1"/>
  
  <!-- Eagle body -->
  <ellipse cx="50" cy="52" rx="12" ry="15" fill="#FFD700"/>
  
  <!-- Eagle head -->
  <circle cx="50" cy="42" r="6" fill="#FFD700"/>
  
  <!-- Eagle beak -->
  <path d="M 50 42 L 48 40 L 50 41 Z" fill="#FFA500"/>
  
  <!-- Eagle wings -->
  <ellipse cx="38" cy="52" rx="14" ry="8" fill="#FFD700" transform="rotate(-25 38 52)"/>
  <ellipse cx="62" cy="52" rx="14" ry="8" fill="#FFD700" transform="rotate(25 62 52)"/>
  
  <!-- Stars in circle -->
  <g fill="#FFD700">
    <circle cx="50" cy="25" r="1.5"/>
    <circle cx="59" cy="27" r="1.5"/>
    <circle cx="65" cy="33" r="1.5"/>
    <circle cx="68" cy="42" r="1.5"/>
    <circle cx="68" cy="52" r="1.5"/>
    <circle cx="65" cy="61" r="1.5"/>
    <circle cx="59" cy="67" r="1.5"/>
    <circle cx="50" cy="70" r="1.5"/>
    <circle cx="41" cy="67" r="1.5"/>
    <circle cx="35" cy="61" r="1.5"/>
    <circle cx="32" cy="52" r="1.5"/>
    <circle cx="32" cy="42" r="1.5"/>
    <circle cx="35" cy="33" r="1.5"/>
    <circle cx="41" cy="27" r="1.5"/>
  </g>
  
  <!-- Shield on eagle's chest -->
  <rect x="46" y="48" width="8" height="10" fill="#B22234" rx="1"/>
  <rect x="46" y="48" width="8" height="2" fill="#FFFFFF"/>
  <rect x="46" cy="52" width="8" height="2" fill="#FFFFFF"/>
  <rect x="46" y="54" width="8" height="2" fill="#FFFFFF"/>
  
  <!-- Olive branch (left) -->
  <path d="M 38 62 Q 35 65 33 68" stroke="#6B8E23" stroke-width="1" fill="none"/>
  <circle cx="34" cy="64" r="1" fill="#6B8E23"/>
  <circle cx="32" cy="67" r="1" fill="#6B8E23"/>
  
  <!-- Arrows (right) -->
  <path d="M 62 62 L 67 68" stroke="#8B7355" stroke-width="1"/>
  <path d="M 64 62 L 69 68" stroke="#8B7355" stroke-width="1"/>
  <path d="M 66 62 L 71 68" stroke="#8B7355" stroke-width="1"/>
  
  <!-- Outer stars -->
  <g fill="#FFD700" font-size="8">
    <text x="50" y="15" text-anchor="middle">★</text>
    <text x="72" y="30" text-anchor="middle">★</text>
    <text x="78" y="52" text-anchor="middle">★</text>
    <text x="72" y="74" text-anchor="middle">★</text>
    <text x="50" y="87" text-anchor="middle">★</text>
    <text x="28" y="74" text-anchor="middle">★</text>
    <text x="22" y="52" text-anchor="middle">★</text>
    <text x="28" y="30" text-anchor="middle">★</text>
  </g>
</svg>
